<svg enable-background="new 0 0 58 56" height="512" viewBox="0 0 58 56" width="512" xmlns="http://www.w3.org/2000/svg"><path d="m50 0h-42-4.999c-1.657 0-3.001 1.344-3.001 3.001v34.999h8 15 12 15 8v-34.999c0-1.657-1.344-3.001-3.001-3.001z" fill="#e7eced"/><path d="m27 4h27v32h-27z" fill="#28384c"/><path d="m4 4h25v32h-25z" fill="#ebba16"/><path d="m34 44v-1h-10v1c0 4.422-1.578 8-6 8v1h22v-1c-4.422 0-6-3.578-6-8z" fill="#e7eced"/><path d="m54.999 44h-51.998c-1.657 0-3.001-1.344-3.001-3.001v-4.999h58v4.999c0 1.657-1.344 3.001-3.001 3.001z" fill="#afb6bb"/><path d="m32 41h-6c-.552 0-1-.448-1-1s.448-1 1-1h6c.552 0 1 .448 1 1s-.448 1-1 1z" fill="#fff"/><path d="m42 56h-26c-1.105 0-2-.895-2-2 0-1.105.895-2 2-2h26c1.105 0 2 .895 2 2 0 1.105-.895 2-2 2z" fill="#afb6bb"/><path d="m8.515 28.485c-.781-.781-.781-2.047 0-2.828l8.485-8.485 2.828 2.828-8.485 8.485c-.781.781-2.047.781-2.828 0z" fill="#6c4127"/><path d="m22.657 17.172-2.828-2.828 2.828-2.828c.781-.781 2.047-.781 2.828 0 .781.781.781 2.047 0 2.828z" fill="#6c4127"/><path d="m24.071 24.243-11.314-11.314c1.562-1.562 4.095-1.562 5.657 0l5.657 5.657c1.562 1.562 1.562 4.095 0 5.657z" fill="#e7eced"/><path d="m43 9h-10c-.552 0-1-.447-1-1s.448-1 1-1h10c.552 0 1 .447 1 1s-.448 1-1 1z" fill="#7383bf"/><path d="m50 9h-3c-.552 0-1-.447-1-1s.448-1 1-1h3c.552 0 1 .447 1 1s-.448 1-1 1z" fill="#ebba16"/><path d="m50 13h-10c-.552 0-1-.447-1-1s.448-1 1-1h10c.552 0 1 .447 1 1s-.448 1-1 1z" fill="#23a24d"/><path d="m36 13h-3c-.552 0-1-.447-1-1s.448-1 1-1h3c.552 0 1 .447 1 1s-.448 1-1 1z" fill="#dd352e"/><path d="m43 17h-10c-.552 0-1-.447-1-1s.448-1 1-1h10c.552 0 1 .447 1 1s-.448 1-1 1z" fill="#ed8a19"/><path d="m50 17h-3c-.552 0-1-.447-1-1s.448-1 1-1h3c.552 0 1 .447 1 1s-.448 1-1 1z" fill="#75348b"/><path d="m50 21h-10c-.552 0-1-.447-1-1s.448-1 1-1h10c.552 0 1 .447 1 1s-.448 1-1 1z" fill="#dd352e"/><path d="m36 21h-3c-.552 0-1-.447-1-1s.448-1 1-1h3c.552 0 1 .447 1 1s-.448 1-1 1z" fill="#f76363"/><path d="m50 33h-10c-.552 0-1-.447-1-1s.448-1 1-1h10c.552 0 1 .447 1 1s-.448 1-1 1z" fill="#23a24d"/><path d="m36 33h-3c-.552 0-1-.447-1-1s.448-1 1-1h3c.552 0 1 .447 1 1s-.448 1-1 1z" fill="#dd352e"/><path d="m43 25h-10c-.552 0-1-.447-1-1s.448-1 1-1h10c.552 0 1 .447 1 1s-.448 1-1 1z" fill="#ebba16"/><path d="m50 25h-3c-.552 0-1-.447-1-1s.448-1 1-1h3c.552 0 1 .447 1 1s-.448 1-1 1z" fill="#ed8a19"/><path d="m50 29h-10c-.552 0-1-.447-1-1s.448-1 1-1h10c.552 0 1 .447 1 1s-.448 1-1 1z" fill="#75348b"/><path d="m36 29h-3c-.552 0-1-.447-1-1s.448-1 1-1h3c.552 0 1 .447 1 1s-.448 1-1 1z" fill="#f76363"/></svg>