<svg height="512" viewBox="0 0 64 64" width="512" xmlns="http://www.w3.org/2000/svg"><g id="Data_mining" data-name="Data mining"><g fill="#9bc9ff"><path d="m47.707 30.05-2.828-2.828-.707.707-4.243 4.243-.707.707 4.95 4.949 2.121 2.122 2.828 2.828.707-.707 4.243-4.243.707-.707-2.828-2.828z"/><path d="m42.05 35.707-19.556 19.556a3 3 0 1 0 4.243 4.243l19.556-19.556-2.121-2.122z"/><path d="m44.172 37.828 2.121 2.122z"/><path d="m52.775 45.018a12 12 0 0 1 2.9 4.69l1.225 3.677.862-4.309a12 12 0 0 0 -3.282-10.839l-.409-.409-4.243 4.243z"/><path d="m43.763 27.52a12 12 0 0 0 -10.839-3.281l-4.309.861 3.677 1.226a12 12 0 0 1 4.69 2.9l2.947 2.947 4.243-4.243z"/><path d="m44.172 27.929-4.243 4.243z"/><path d="m49.389 28.111h3v6h-3z" transform="matrix(.707 -.707 .707 .707 -7.094 45.096)"/><path d="m47.707 30.05 4.243 4.243z"/><path d="m13 14h4v6h-4z"/><path d="m21 10h4v10h-4z"/><path d="m37 10h4v10h-4z"/><path d="m29 7h4v13h-4z"/></g><path d="m18 56h-11v-52h40v21a1 1 0 0 0 2 0v-22a1 1 0 0 0 -1-1h-42a1 1 0 0 0 -1 1v54a1 1 0 0 0 1 1h12a1 1 0 0 0 0-2z" fill="#1e81ce"/><path d="m55.467 37.847.018-.019a1 1 0 0 0 0-1.414l-2.121-2.121 1.414-1.415a1 1 0 0 0 0-1.414l-4.243-4.242a1.029 1.029 0 0 0 -1.414 0l-1.414 1.414-2.121-2.121a1 1 0 0 0 -1.414 0l-.019.019a12.95 12.95 0 0 0 -11.425-3.276l-4.309.862a1 1 0 0 0 -.12 1.929l3.677 1.226a11.051 11.051 0 0 1 4.3 2.657l2.24 2.24a1 1 0 0 0 0 1.414l2.121 2.121-18.85 18.85a4 4 0 1 0 5.656 5.656l18.85-18.849 2.121 2.121a1 1 0 0 0 1.414 0l2.24 2.24a11.055 11.055 0 0 1 2.658 4.3l1.225 3.675a1 1 0 0 0 .948.684h.063a1 1 0 0 0 .918-.8l.862-4.31a12.962 12.962 0 0 0 -3.275-11.427zm-22.859-12.47-.1-.034.617-.124a10.981 10.981 0 0 1 9.631 2.716l-2.822 2.822-2.24-2.239a13.063 13.063 0 0 0 -5.086-3.141zm17.22 3.966 2.829 2.828-.707.708-2.829-2.829zm-23.799 29.457a2.047 2.047 0 0 1 -2.828 0 2 2 0 0 1 0-2.828l18.849-18.851 2.829 2.829zm14.607-25.92 4.243-4.243 8.485 8.485-4.243 4.243zm16.145 16-.124.618-.034-.1a13.052 13.052 0 0 0 -3.141-5.082l-2.24-2.24 2.823-2.822a10.975 10.975 0 0 1 2.716 9.625z" fill="#1e81ce"/><path d="m48 58h-13.75a1 1 0 0 1 0-2h12.75v-10a1 1 0 0 1 2 0v11a1 1 0 0 1 -1 1z" fill="#1e81ce"/><path d="m44 19h-2v-9a1 1 0 0 0 -1-1h-4a1 1 0 0 0 -1 1v9h-2v-12a1 1 0 0 0 -1-1h-4a1 1 0 0 0 -1 1v12h-2v-9a1 1 0 0 0 -1-1h-4a1 1 0 0 0 -1 1v9h-2v-5a1 1 0 0 0 -1-1h-4a1 1 0 0 0 -1 1v5h-2a1 1 0 0 0 0 2h34a1 1 0 0 0 0-2zm-30 0v-4h2v4zm8 0v-8h2v8zm8 0v-11h2v11zm8 0v-8h2v8z" fill="#1e81ce"/><path d="m14 30h-2a1 1 0 0 1 0-2h2a1 1 0 0 1 0 2z" fill="#1e81ce"/><path d="m30 30h-12a1 1 0 0 1 0-2h12a1 1 0 0 1 0 2z" fill="#1e81ce"/><path d="m35 36h-23a1 1 0 0 1 0-2h23a1 1 0 0 1 0 2z" fill="#1e81ce"/><path d="m30 42h-18a1 1 0 0 1 0-2h18a1 1 0 0 1 0 2z" fill="#1e81ce"/><path d="m24 48h-12a1 1 0 0 1 0-2h12a1 1 0 0 1 0 2z" fill="#1e81ce"/></g></svg>